<?xml version="1.0" encoding="UTF-8" standalone="no"?><svg xmlns="http://www.w3.org/2000/svg" width="24" height="24" viewBox="0 0 24 24">
    <g fill="none" fill-rule="evenodd">
        <g>
            <g>
                <g>
                    <g transform="translate(-285 -54) translate(0 44) translate(18 10) translate(267)">
                        <path fill="#FFF" fill-rule="nonzero" d="M14 20c0 1.105-.895 2-2 2-1.054 0-1.918-.816-1.995-1.85L10 20h4zM12 3c3.866 0 7 2.878 7 6.429v6.598L21 18H3l2-1.974V9.429C5 5.879 8.134 3 12 3zm0 2C9.304 5 7.116 6.937 7.011 9.351l-.004.182v6.46L7 16h10l-.006-.005V9.533C16.994 7.035 14.764 5 12 5z"/>
                        <circle cx="22" cy="2" r="2" fill="#FF3042"/>
                    </g>
                </g>
            </g>
        </g>
    </g>
</svg>
